<svg xmlns="http://www.w3.org/2000/svg" version="1.1" xmlns:xlink="http://www.w3.org/1999/xlink" xmlns:svgjs="http://svgjs.dev/svgjs" width="2000" height="1500" viewBox="0 0 2000 1500"><rect width="2000" height="1500" fill="#ffffff"></rect><g transform="matrix(0.75,0,0,0.75,249.090909090909,577.7587697085523)"><svg viewBox="0 0 396 91" data-background-color="#ffffff" preserveAspectRatio="xMidYMid meet" height="459" width="2000" xmlns="http://www.w3.org/2000/svg" xmlns:xlink="http://www.w3.org/1999/xlink"><g id="tight-bounds" transform="matrix(1,0,0,1,0.2400000000000091,0.030724637681146305)"><svg viewBox="0 0 395.52 90.93855072463768" height="90.93855072463768" width="395.52"><g><svg viewBox="0 0 395.52 90.93855072463768" height="90.93855072463768" width="395.52"><g><svg viewBox="0 0 395.52 90.93855072463768" height="90.93855072463768" width="395.52"><g><svg viewBox="0 0 395.52 90.93855072463768" height="90.93855072463768" width="395.52"><g id="textblocktransform"><svg viewBox="0 0 395.52 90.93855072463768" height="90.93855072463768" width="395.52" id="textblock"><g><svg viewBox="0 0 395.52 90.93855072463768" height="90.93855072463768" width="395.52"><g transform="matrix(1,0,0,1,0,0)"><svg width="395.52" viewBox="1.95 -37.58 165.58 38.08" height="90.93855072463768" data-palette-color="#0f2027"><path d="M25.53-36.88L25.53-33.13 14.88-33.13 15.85-35.55 15.85 0 11.6 0 11.6-35.55 12.8-33.13 1.95-33.13 1.95-36.88 25.53-36.88ZM35.75 0L31.55 0 31.55-26.55 35.75-26.55 35.75 0ZM33.67-32.65L33.67-32.65Q32.5-32.65 31.64-33.31 30.77-33.98 30.77-35.13L30.77-35.13Q30.77-36.25 31.64-36.91 32.5-37.58 33.67-37.58L33.67-37.58Q34.85-37.58 35.7-36.91 36.55-36.25 36.55-35.13L36.55-35.13Q36.55-33.98 35.7-33.31 34.85-32.65 33.67-32.65ZM46.49-3.85L46.47-3.9 62.22-3.9 62.22 0 41.72 0 41.72-3.75 57.3-22.75 57.32-22.65 42.34-22.65 42.34-26.55 62-26.55 62-22.8 46.49-3.85ZM72.34 0L68.14 0 68.14-26.55 72.34-26.55 72.34 0ZM70.27-32.65L70.27-32.65Q69.09-32.65 68.23-33.31 67.37-33.98 67.37-35.13L67.37-35.13Q67.37-36.25 68.23-36.91 69.09-37.58 70.27-37.58L70.27-37.58Q71.44-37.58 72.29-36.91 73.14-36.25 73.14-35.13L73.14-35.13Q73.14-33.98 72.29-33.31 71.44-32.65 70.27-32.65ZM89.54 0.5L89.54 0.5Q86.52 0.5 84.25-0.45 81.99-1.4 80.74-3.19 79.49-4.98 79.49-7.48L79.49-7.48Q79.49-10.08 80.84-11.81 82.19-13.55 84.64-14.53 87.09-15.5 90.34-15.83L90.34-15.83Q95.24-16.32 97.31-16.81 99.39-17.3 99.39-18.4L99.39-18.4Q99.39-18.43 99.39-18.44 99.39-18.45 99.39-18.48L99.39-18.48Q99.39-20.78 97.52-21.91 95.64-23.05 92.09-23.05L92.09-23.05Q88.39-23.05 86.34-21.76 84.29-20.48 84.29-17.6L84.29-17.6 80.09-17.6Q80.09-20.58 81.61-22.66 83.14-24.75 85.85-25.85 88.56-26.95 92.11-26.95L92.11-26.95Q95.36-26.95 97.98-25.96 100.59-24.98 102.13-23.04 103.66-21.1 103.66-18.25L103.66-18.25Q103.66-17.73 103.66-17.21 103.66-16.7 103.66-16.18L103.66-16.18 103.66-5Q103.66-4.13 103.74-3.3 103.81-2.48 103.99-1.85L103.99-1.85Q104.22-1.1 104.49-0.64 104.77-0.18 104.94 0L104.94 0 100.66 0Q100.54-0.13 100.29-0.59 100.04-1.05 99.81-1.68L99.81-1.68Q99.64-2.18 99.54-2.94 99.44-3.7 99.44-4.53L99.44-4.53 100.14-4.05Q99.36-2.7 97.88-1.68 96.39-0.65 94.29-0.08 92.19 0.5 89.54 0.5ZM90.22-3.33L90.22-3.33Q92.79-3.33 94.86-4.11 96.94-4.9 98.16-6.45 99.39-8 99.39-10.3L99.39-10.3 99.39-15.58 100.34-13.98Q98.74-13.35 96.35-12.96 93.97-12.58 91.36-12.33L91.36-12.33Q87.59-11.98 85.68-11 83.77-10.03 83.77-7.73L83.77-7.73Q83.77-5.55 85.34-4.44 86.91-3.33 90.22-3.33ZM133.96 0L129.71 0 129.71-12.73Q129.71-13.88 129.71-14.61 129.71-15.35 129.71-16.03L129.71-16.03Q129.71-18.1 129.01-19.65 128.31-21.2 126.81-22.05 125.31-22.9 122.89-22.9L122.89-22.9Q120.76-22.9 118.95-21.81 117.14-20.73 116.05-18.89 114.96-17.05 114.96-14.78L114.96-14.78 112.54-15.7Q112.54-18.82 114.08-21.38 115.61-23.93 118.18-25.44 120.74-26.95 123.76-26.95L123.76-26.95Q126.84-26.95 129.14-25.78 131.44-24.6 132.7-22.41 133.96-20.23 133.96-17.15L133.96-17.15Q133.96-16.05 133.96-14.75 133.96-13.45 133.96-12.33L133.96-12.33 133.96 0ZM114.96 0L110.71 0 110.71-26.55 114.96-26.55 114.96 0ZM153.94 0.48L153.94 0.48Q149.94 0.48 146.87-1.31 143.81-3.1 142.07-6.21 140.34-9.33 140.34-13.3L140.34-13.3Q140.34-17.28 142.07-20.35 143.81-23.43 146.87-25.18 149.94-26.93 153.94-26.93L153.94-26.93Q157.94-26.93 161-25.18 164.06-23.43 165.8-20.35 167.53-17.28 167.53-13.3L167.53-13.3Q167.53-9.33 165.8-6.21 164.06-3.1 161-1.31 157.94 0.48 153.94 0.48ZM153.94-3.43L153.94-3.43Q156.69-3.43 158.78-4.65 160.88-5.88 162.07-8.1 163.26-10.33 163.26-13.3L163.26-13.3Q163.26-16.28 162.07-18.46 160.88-20.65 158.78-21.84 156.69-23.03 153.94-23.03L153.94-23.03Q151.21-23.03 149.1-21.84 146.98-20.65 145.8-18.46 144.61-16.28 144.61-13.3L144.61-13.3Q144.61-10.33 145.8-8.1 146.98-5.88 149.1-4.65 151.21-3.43 153.94-3.43Z" opacity="1" transform="matrix(1,0,0,1,0,0)" fill="#000000" class="wordmark-text-0" data-fill-palette-color="primary" id="text-0"></path></svg></g></svg></g></svg></g></svg></g></svg></g></svg></g><defs></defs></svg><rect width="395.52" height="90.93855072463768" fill="none" stroke="none" visibility="hidden"></rect></g></svg></g></svg>